<svg width="240" height="47" viewBox="0 0 240 47" fill="none" xmlns="http://www.w3.org/2000/svg">
<path d="M197.284 1.99028e-06V11.0092H240V1.99028e-06H197.284Z" fill="black"/>
<path d="M197.284 35.6697V46.6789H240V35.6697H197.284Z" fill="black"/>
<path d="M197.284 17.8216V28.8308H218.642V17.8216H197.284Z" fill="black"/>
<path d="M92.0368 46.6789V35.6697H49.3212V46.6789H92.0368Z" fill="black"/>
<path d="M92.0368 11.0092V0H49.3212V11.0092H92.0368Z" fill="black"/>
<path d="M92.0368 28.8572V17.8481H70.6789V28.8572H92.0368Z" fill="black"/>
<path fill-rule="evenodd" clip-rule="evenodd" d="M25.0921 0V11.0092H31.6976V26.8668L11.0092 0H0V46.6789H11.0092V19.8033L31.7064 46.6789H42.7156V0H25.0921Z" fill="black"/>
<path fill-rule="evenodd" clip-rule="evenodd" d="M144.938 0.0220204H156.793L165.939 22.9343L160.012 37.7835L144.938 0.0220204Z" fill="black"/>
<path fill-rule="evenodd" clip-rule="evenodd" d="M163.552 46.6525L175.407 46.6569L194.052 0.0220204H166.001V11.0356H177.798L163.552 46.6525Z" fill="black"/>
<path fill-rule="evenodd" clip-rule="evenodd" d="M109.651 46.6525L98.6422 46.6789V0.189355H141.358V24.1013L131.124 30.6495L141.345 46.6789H128.288L115.931 27.2983L130.349 17.8481V11.0312H109.651V46.6525Z" fill="black"/>
</svg>